<svg id="Group_64" data-name="Group 64" xmlns="http://www.w3.org/2000/svg" viewBox="0 0 134.793 63.527">
  <defs>
    <style>
      .cls-1 {
        fill: #b7b7b7;
      }
    </style>
  </defs>
  <g id="Group_59" data-name="Group 59" transform="translate(68.262)">
    <g id="Group_57" data-name="Group 57">
      <path id="Path_73" data-name="Path 73" class="cls-1" d="M92.5,0h8.539q8.89,0,8.882,7.7V36.735q0,7.763-8.882,7.763H92.926q-8.89,0-8.882-7.763V31h9.723V35.4c0,1.167.629,1.747,1.886,1.747h2.661c1.208,0,1.82-.58,1.82-1.747V26.939H92.5q-8.89,0-8.882-7.7V7.7Q83.62.008,92.5,0Zm2.8,20.082h4.825V9.1c0-1.167-.6-1.747-1.82-1.747H95.294c-1.257,0-1.886.588-1.886,1.747v9.233a1.8,1.8,0,0,0,.416,1.363A2.213,2.213,0,0,0,95.3,20.082Z" transform="translate(-83.62)"/>
      <path id="Path_74" data-name="Path 74" class="cls-1" d="M136.8,0V44.5H126.794V7.347h-5.8V0Z" transform="translate(-90.484)"/>
      <path id="Path_75" data-name="Path 75" class="cls-1" d="M161.562,0V44.5H151.554V7.347h-5.8V0Z" transform="translate(-95.031)"/>
    </g>
    <g id="Group_58" data-name="Group 58" transform="translate(1.069 48.654)">
      <path id="Path_76" data-name="Path 76" class="cls-1" d="M84.93,59.61H91.1c1.976,0,2.971.857,2.971,2.571V64.8c0,1.151-.351,1.878-1.053,2.171.7.261,1.053.939,1.053,2.008v2.9q0,2.6-2.971,2.6H84.93Zm5.845,5.657V62.483c0-.392-.212-.588-.629-.588H88.228v3.951h1.918C90.563,65.847,90.775,65.651,90.775,65.267Zm0,6.335V68.7a.585.585,0,0,0-.139-.433.749.749,0,0,0-.49-.131H88.228v4.041h1.918C90.563,72.182,90.775,71.986,90.775,71.6Z" transform="translate(-84.93 -59.602)"/>
      <path id="Path_77" data-name="Path 77" class="cls-1" d="M111.917,72.018h4.767v2.457H108.57V59.61H116.5v2.457h-4.58v3.625h3.9v2.457h-3.9Z" transform="translate(-89.272 -59.602)"/>
      <path id="Path_78" data-name="Path 78" class="cls-1" d="M130.51,59.61h6.2c1.975,0,2.971.857,2.971,2.571v9.7q0,2.6-2.971,2.6h-6.2ZM136.33,71.6V62.483c0-.392-.212-.588-.629-.588h-1.845V72.182H135.7C136.118,72.182,136.33,71.986,136.33,71.6Z" transform="translate(-93.301 -59.602)"/>
      <path id="Path_79" data-name="Path 79" class="cls-1" d="M159.325,71.437V68.743a.585.585,0,0,0-.139-.433.749.749,0,0,0-.49-.131h-2.057q-2.755,0-2.759-2.62V62.171q0-2.571,2.947-2.571h2.849q2.951,0,2.947,2.571v1.943h-3.339V62.645c0-.392-.212-.588-.629-.588h-.792c-.424,0-.629.2-.629.588v2.62a.572.572,0,0,0,.139.433.7.7,0,0,0,.49.131h2.008a2.962,2.962,0,0,1,2.147.645,2.571,2.571,0,0,1,.653,1.9v3.5q0,2.6-2.947,2.6H156.9c-1.976,0-2.971-.865-2.971-2.6V69.959h3.339v1.469c0,.392.212.588.629.588h.792C159.113,72.016,159.325,71.821,159.325,71.437Z" transform="translate(-97.594 -59.6)"/>
    </g>
  </g>
  <g id="Group_63" data-name="Group 63">
    <path id="Path_80" data-name="Path 80" class="cls-1" d="M53.364,0H5.429A5.43,5.43,0,0,0,0,5.42V58.05a5.424,5.424,0,0,0,5.429,5.42H53.364a5.418,5.418,0,0,0,5.42-5.42V5.42A5.423,5.423,0,0,0,53.364,0Zm.327,27.813a10.221,10.221,0,0,1-2.155,11.682,10.276,10.276,0,0,1,2.286,3.29,10.248,10.248,0,0,1-9.4,14.294H14.367a10.23,10.23,0,0,1-7.11-17.584A10.276,10.276,0,0,1,4.971,36.2,10.24,10.24,0,0,1,7.706,24.392a10.227,10.227,0,0,1-2.6-3.42,10.125,10.125,0,0,1-.963-4.335A10.231,10.231,0,0,1,14.367,6.4H44.417a10.229,10.229,0,0,1,6.669,17.992A10.335,10.335,0,0,1,53.69,27.813Z"/>
    <g id="Group_60" data-name="Group 60" transform="translate(16.384 13.951)">
      <path id="Path_81" data-name="Path 81" class="cls-1" d="M25.352,20.184A4.3,4.3,0,0,0,26,22.453a4.319,4.319,0,0,0-5.241-.024,4.316,4.316,0,0,0-.686-5.323.018.018,0,0,1,.016-.016,4.326,4.326,0,0,0,6.343.229A4.335,4.335,0,0,0,25.352,20.184Z" transform="translate(-20.07 -17.09)"/>
      <path id="Path_82" data-name="Path 82" class="cls-1" d="M49.432,20.184a4.3,4.3,0,0,0,.645,2.269,4.319,4.319,0,0,0-5.241-.024,4.316,4.316,0,0,0-.686-5.323.018.018,0,0,1,.016-.016,4.326,4.326,0,0,0,6.343.229A4.335,4.335,0,0,0,49.432,20.184Z" transform="translate(-24.493 -17.09)"/>
    </g>
    <g id="Group_61" data-name="Group 61" transform="translate(16.384 29.053)">
      <path id="Path_83" data-name="Path 83" class="cls-1" d="M25.352,38.684A4.3,4.3,0,0,0,26,40.953a4.319,4.319,0,0,0-5.241-.024,4.316,4.316,0,0,0-.686-5.322.018.018,0,0,1,.016-.016,4.326,4.326,0,0,0,6.343.229A4.335,4.335,0,0,0,25.352,38.684Z" transform="translate(-20.07 -35.59)"/>
      <path id="Path_84" data-name="Path 84" class="cls-1" d="M49.432,38.684a4.3,4.3,0,0,0,.645,2.269,4.319,4.319,0,0,0-5.241-.024,4.316,4.316,0,0,0-.686-5.322.018.018,0,0,1,.016-.016,4.326,4.326,0,0,0,6.343.229A4.335,4.335,0,0,0,49.432,38.684Z" transform="translate(-24.493 -35.59)"/>
    </g>
    <g id="Group_62" data-name="Group 62" transform="translate(16.384 44.156)">
      <path id="Path_85" data-name="Path 85" class="cls-1" d="M25.352,57.184A4.3,4.3,0,0,0,26,59.453a4.319,4.319,0,0,0-5.241-.024,4.316,4.316,0,0,0-.686-5.322.018.018,0,0,1,.016-.016,4.326,4.326,0,0,0,6.343.229A4.335,4.335,0,0,0,25.352,57.184Z" transform="translate(-20.07 -54.09)"/>
      <path id="Path_86" data-name="Path 86" class="cls-1" d="M49.432,57.184a4.3,4.3,0,0,0,.645,2.269,4.319,4.319,0,0,0-5.241-.024,4.316,4.316,0,0,0-.686-5.322.018.018,0,0,1,.016-.016,4.326,4.326,0,0,0,6.343.229A4.335,4.335,0,0,0,49.432,57.184Z" transform="translate(-24.493 -54.09)"/>
    </g>
  </g>
</svg>
